<svg width="113" height="29" viewBox="0 0 113 29" fill="none" xmlns="http://www.w3.org/2000/svg">
<path d="M44.2848 27.4209C50.0102 27.4209 52.8506 24.0538 52.8506 20.1647C52.9192 18.649 52.3989 17.1602 51.3825 15.9635C50.3661 14.7668 48.9195 13.94 47.3004 13.6303C48.782 13.3042 50.0919 12.5119 51.0022 11.3912C51.9125 10.2706 52.3656 8.8926 52.2825 7.49716C52.2825 4.13012 49.5292 0.682233 43.7603 0.682233H27.2403V27.4209H44.2848ZM34.7581 6.41507H42.0561C42.3925 6.39658 42.7294 6.44241 43.0456 6.54963C43.3617 6.65686 43.6501 6.82314 43.8924 7.03796C44.1348 7.25278 44.3259 7.51143 44.4536 7.79754C44.5813 8.08365 44.6428 8.39097 44.6342 8.70003C44.6436 9.0111 44.5831 9.32063 44.4563 9.60927C44.3295 9.89792 44.1392 10.1595 43.8973 10.3777C43.6554 10.5958 43.367 10.7659 43.0502 10.8773C42.7334 10.9886 42.395 11.0389 42.0561 11.0249H34.7581V6.41507ZM34.7581 16.7178H42.3183C42.6927 16.6938 43.0684 16.7418 43.4214 16.8586C43.7745 16.9754 44.097 17.1586 44.3685 17.3963C44.6399 17.634 44.8543 17.9211 44.9978 18.2391C45.1414 18.5572 45.211 18.8992 45.2022 19.2433C45.212 19.5843 45.1423 19.9232 44.9978 20.2374C44.8534 20.5517 44.6374 20.834 44.3644 21.0655C44.0914 21.297 43.7676 21.4724 43.4148 21.58C43.0619 21.6875 42.6881 21.7247 42.3183 21.689H34.7581V16.7178ZM64.038 27.4209V18.3609H71.1183C77.6741 18.3609 81.2578 14.3919 81.2578 9.58146C81.2578 4.73105 77.6741 0.682233 71.1183 0.682233H56.5214V27.4209H64.038ZM73.6094 9.54154C73.6133 9.9529 73.5235 10.3605 73.3457 10.7381C73.1678 11.1158 72.9059 11.4552 72.5767 11.7345C72.2474 12.0138 71.8582 12.227 71.4339 12.3602C71.0096 12.4935 70.5596 12.5439 70.1128 12.5083H64.038V6.49493H70.1128C70.5654 6.4653 71.0198 6.52255 71.447 6.66302C71.8742 6.80348 72.2647 7.02409 72.5937 7.31076C72.9227 7.59744 73.183 7.94386 73.3579 8.32796C73.5327 8.71205 73.6184 9.12538 73.6094 9.54154ZM99.1315 27.901C101.819 28.0081 104.481 27.3841 106.782 26.1074C109.084 24.8307 110.923 22.9584 112.068 20.7257L105.6 17.9197C105.051 19.0746 104.147 20.0577 102.998 20.7491C101.849 21.4404 100.506 21.81 99.1326 21.8128C94.5869 21.8128 91.222 18.4458 91.222 14.0755C91.222 9.70524 94.5869 6.33821 99.1326 6.33821C100.506 6.341 101.849 6.71062 102.998 7.40196C104.147 8.0933 105.051 9.07643 105.6 10.2313L112.068 7.42529C110.145 3.89754 106.386 0.25 99.1315 0.25C90.3905 0.25 83.5692 5.82213 83.5692 14.0805C83.5692 22.2979 90.3873 27.911 99.1315 27.911" fill="#080808"/>
<path d="M8.49179 14.1234L0.276433 27.1543C0.259053 27.1817 0.24993 27.2129 0.25 27.2446C0.25007 27.2763 0.259331 27.3074 0.276831 27.3347C0.294332 27.362 0.319443 27.3846 0.349589 27.4001C0.379735 27.4156 0.413832 27.4234 0.44838 27.4229C1.72057 27.4059 5.05612 27.347 8.92383 27.347C10.2407 27.3233 11.5212 26.9466 12.6074 26.2633C13.6936 25.58 14.5381 24.6201 15.0367 23.5018L21.2398 14.1274L15.0367 4.75302C14.5381 3.63477 13.6936 2.67482 12.6074 1.99155C11.5212 1.30827 10.2407 0.931545 8.92383 0.907833C5.05612 0.907833 1.72057 0.849932 0.44838 0.831963C0.413832 0.831381 0.379735 0.839243 0.349589 0.854735C0.319443 0.870227 0.294332 0.892795 0.276831 0.920125C0.259331 0.947455 0.25007 0.978564 0.25 1.01026C0.24993 1.04196 0.259053 1.0731 0.276433 1.10049L8.49179 14.1234Z" fill="#080808"/>
<path d="M99.1315 27.901C101.819 28.0081 104.481 27.3841 106.782 26.1074C109.084 24.8307 110.923 22.9584 112.068 20.7257L105.6 17.9197C105.051 19.0746 104.147 20.0577 102.998 20.7491C101.849 21.4404 100.506 21.81 99.1326 21.8128C94.5869 21.8128 91.222 18.4458 91.222 14.0755C91.222 9.70524 94.5869 6.33821 99.1326 6.33821C100.506 6.341 101.849 6.71062 102.998 7.40196C104.147 8.0933 105.051 9.07643 105.6 10.2313L112.068 7.42529C110.145 3.89754 106.386 0.25 99.1315 0.25C90.3905 0.25 83.5692 5.82213 83.5692 14.0805C83.5692 22.2979 90.3873 27.911 99.1315 27.911M44.2848 27.4209C50.0102 27.4209 52.8506 24.0538 52.8506 20.1647C52.9192 18.649 52.3989 17.1602 51.3825 15.9635C50.3661 14.7668 48.9195 13.94 47.3004 13.6303C48.782 13.3042 50.0919 12.5119 51.0022 11.3912C51.9125 10.2706 52.3656 8.8926 52.2825 7.49716C52.2825 4.13012 49.5292 0.682233 43.7603 0.682233H27.2403V27.4209H44.2848ZM34.7581 6.41507H42.0561C42.3925 6.39658 42.7294 6.44241 43.0456 6.54963C43.3617 6.65686 43.6501 6.82315 43.8924 7.03796C44.1348 7.25278 44.3259 7.51143 44.4536 7.79754C44.5813 8.08365 44.6428 8.39097 44.6342 8.70003C44.6436 9.0111 44.5831 9.32063 44.4563 9.60927C44.3295 9.89792 44.1392 10.1595 43.8973 10.3777C43.6554 10.5958 43.367 10.7659 43.0502 10.8773C42.7334 10.9886 42.395 11.0389 42.0561 11.0249H34.7581V6.41507ZM34.7581 16.7178H42.3183C42.6927 16.6938 43.0684 16.7418 43.4214 16.8586C43.7745 16.9754 44.097 17.1586 44.3685 17.3963C44.6399 17.634 44.8543 17.9211 44.9978 18.2391C45.1414 18.5572 45.211 18.8992 45.2022 19.2433C45.212 19.5843 45.1423 19.9232 44.9978 20.2374C44.8534 20.5517 44.6374 20.834 44.3644 21.0655C44.0914 21.297 43.7676 21.4724 43.4148 21.58C43.0619 21.6875 42.6881 21.7247 42.3183 21.689H34.7581V16.7178ZM64.038 27.4209V18.3609H71.1183C77.6741 18.3609 81.2578 14.3919 81.2578 9.58146C81.2578 4.73105 77.6741 0.682233 71.1183 0.682233H56.5214V27.4209H64.038ZM73.6094 9.54154C73.6133 9.9529 73.5235 10.3605 73.3457 10.7381C73.1678 11.1158 72.9059 11.4552 72.5767 11.7345C72.2474 12.0138 71.8582 12.227 71.4339 12.3602C71.0096 12.4935 70.5596 12.5439 70.1128 12.5083H64.038V6.49493H70.1128C70.5654 6.4653 71.0198 6.52255 71.447 6.66302C71.8742 6.80348 72.2647 7.02409 72.5937 7.31076C72.9227 7.59744 73.183 7.94386 73.3579 8.32796C73.5327 8.71205 73.6184 9.12538 73.6094 9.54154ZM8.49179 14.1234L0.276433 27.1543C0.259053 27.1817 0.24993 27.2129 0.25 27.2446C0.25007 27.2763 0.259331 27.3074 0.276831 27.3347C0.294332 27.362 0.319443 27.3846 0.349589 27.4001C0.379735 27.4156 0.413832 27.4234 0.44838 27.4229C1.72057 27.4059 5.05612 27.347 8.92383 27.347C10.2407 27.3233 11.5212 26.9466 12.6074 26.2633C13.6936 25.58 14.5381 24.6201 15.0367 23.5018L21.2398 14.1274L15.0367 4.75302C14.5381 3.63477 13.6936 2.67482 12.6074 1.99155C11.5212 1.30827 10.2407 0.931545 8.92383 0.907833C5.05612 0.907833 1.72057 0.849932 0.44838 0.831963C0.413832 0.831381 0.379735 0.839243 0.349589 0.854735C0.319443 0.870227 0.294332 0.892795 0.276831 0.920125C0.259331 0.947455 0.25007 0.978564 0.25 1.01026C0.24993 1.04196 0.259053 1.0731 0.276433 1.10049L8.49179 14.1234Z" stroke="white" stroke-width="0.5"/>
</svg>
